<svg xmlns="http://www.w3.org/2000/svg" xmlns:xlink="http://www.w3.org/1999/xlink" width="870" height="277.1"><rect width="870" height="277.1" rx="5" ry="5" class="a"/><svg y="0%" x="0%"><circle cx="20" cy="20" r="6" fill="#ff5f58"/><circle cx="40" cy="20" r="6" fill="#ffbd2e"/><circle cx="60" cy="20" r="6" fill="#18c132"/></svg><svg height="217.1" viewBox="0 0 83 21.71" width="830" x="15" xmlns="http://www.w3.org/2000/svg" xmlns:xlink="http://www.w3.org/1999/xlink" y="50"><style>@keyframes o{0%{transform:translateX(0)}.2%{transform:translateX(-83px)}5.1%{transform:translateX(-166px)}14.3%{transform:translateX(-249px)}16.3%{transform:translateX(-1079px)}23.6%{transform:translateX(-1411px)}26.2%{transform:translateX(-1743px)}28%{transform:translateX(-1992px)}29%{transform:translateX(-2241px)}32.3%{transform:translateX(-2490px)}35.9%{transform:translateX(-2739px)}40%{transform:translateX(-2988px)}42.7%{transform:translateX(-3237px)}43.9%{transform:translateX(-3486px)}45.1%{transform:translateX(-3818px)}47.5%{transform:translateX(-4067px)}49.3%{transform:translateX(-4316px)}51.5%{transform:translateX(-4565px)}53.5%{transform:translateX(-4897px)}56.7%{transform:translateX(-5146px)}63%{transform:translateX(-5395px)}67.9%{transform:translateX(-5644px)}69.3%{transform:translateX(-5893px)}70.5%{transform:translateX(-6142px)}76.8%{transform:translateX(-6391px)}84.9%{transform:translateX(-6474px)}85%{transform:translateX(-7055px)}85.1%{transform:translateX(-7221px)}to{transform:translateX(-7304px)}}.a{fill:#272822}.f{fill:#fff}.g{fill:#3791a5}.h{fill:#fff;font-weight:700}.i{fill:#615e4b}.j{fill:#66c2cd}.l{fill:#609a09}.m{fill:#8a0031}</style><g font-size="1.67" font-family="Monaco,Consolas,Menlo,'Bitstream Vera Sans Mono','Powerline Symbols',monospace"><defs><symbol id="1"><text y="1.67" class="f">bash-4.4$</text></symbol><symbol id="2"><text y="1.67" class="f">bash-4.4$</text><text x="10.02" y="1.67" class="f">node</text><text x="15.03" y="1.67" class="f">lib/prompts/form/default-values.js</text></symbol><symbol id="3"><text y="1.67" class="g">?</text><text x="2.004" y="1.67" class="h">Please</text><text x="9.018" y="1.67" class="h">provide</text><text x="17.034" y="1.67" class="h">the</text><text x="21.042" y="1.67" class="h">following</text><text x="31.062" y="1.67" class="h">information:</text></symbol><symbol id="4"><text y="1.67" class="i">⊙</text><text x="8.016" y="1.67" class="g">First</text><text x="14.028" y="1.67" class="g">Name</text><text x="19.038" y="1.67" class="i">:</text><path class="j" d="M21.042 0h1v2.171h-1z"/><text x="21.042" y="1.67" class="k">J</text><text x="22.044" y="1.67" class="f">on</text></symbol><symbol id="5"><text y="1.67" class="i">⊙</text><text x="9.018" y="1.67" class="f">Last</text><text x="14.028" y="1.67" class="f">Name</text><text x="19.038" y="1.67" class="i">:</text><text x="21.042" y="1.67" class="f">Schlinkert</text></symbol><symbol id="6"><text y="1.67" class="i">⊙</text><text x="3.006" y="1.67" class="f">GitHub</text><text x="10.02" y="1.67" class="f">username</text><text x="19.038" y="1.67" class="i">:</text><text x="21.042" y="1.67" class="f">undefinedundefined</text></symbol><symbol id="7"><text y="1.67" class="i">⊙</text><text x="3.006" y="1.67" class="f">GitHub</text><text x="10.02" y="1.67" class="f">username</text><text x="19.038" y="1.67" class="i">:</text><text x="21.042" y="1.67" class="f">jonschlinkert</text></symbol><symbol id="8"><text y="1.67" class="l">⦿</text><text x="8.016" y="1.67" class="g">First</text><text x="14.028" y="1.67" class="g">Name</text><text x="19.038" y="1.67" class="i">:</text><text x="21.042" y="1.67" class="f">B</text><path class="j" d="M22.044 0h1v2.171h-1z"/><text x="22.044" y="1.67" class="k"></text></symbol><symbol id="9"><text y="1.67" class="l">⦿</text><text x="8.016" y="1.67" class="g">First</text><text x="14.028" y="1.67" class="g">Name</text><text x="19.038" y="1.67" class="i">:</text><text x="21.042" y="1.67" class="f">Br</text><path class="j" d="M23.046 0h1v2.171h-1z"/><text x="23.046" y="1.67" class="k"></text></symbol><symbol id="10"><text y="1.67" class="i">⊙</text><text x="3.006" y="1.67" class="f">GitHub</text><text x="10.02" y="1.67" class="f">username</text><text x="19.038" y="1.67" class="i">:</text><text x="21.042" y="1.67" class="f">bschlinkert</text></symbol><symbol id="11"><text y="1.67" class="l">⦿</text><text x="8.016" y="1.67" class="g">First</text><text x="14.028" y="1.67" class="g">Name</text><text x="19.038" y="1.67" class="i">:</text><text x="21.042" y="1.67" class="f">Bri</text><path class="j" d="M24.048 0h1v2.171h-1z"/><text x="24.048" y="1.67" class="k"></text></symbol><symbol id="12"><text y="1.67" class="i">⊙</text><text x="3.006" y="1.67" class="f">GitHub</text><text x="10.02" y="1.67" class="f">username</text><text x="19.038" y="1.67" class="i">:</text><text x="21.042" y="1.67" class="f">brschlinkert</text></symbol><symbol id="13"><text y="1.67" class="l">⦿</text><text x="8.016" y="1.67" class="g">First</text><text x="14.028" y="1.67" class="g">Name</text><text x="19.038" y="1.67" class="i">:</text><text x="21.042" y="1.67" class="f">Bria</text><path class="j" d="M25.05 0h1v2.171h-1z"/><text x="25.05" y="1.67" class="k"></text></symbol><symbol id="14"><text y="1.67" class="i">⊙</text><text x="3.006" y="1.67" class="f">GitHub</text><text x="10.02" y="1.67" class="f">username</text><text x="19.038" y="1.67" class="i">:</text><text x="21.042" y="1.67" class="f">brischlinkert</text></symbol><symbol id="15"><text y="1.67" class="l">⦿</text><text x="8.016" y="1.67" class="g">First</text><text x="14.028" y="1.67" class="g">Name</text><text x="19.038" y="1.67" class="i">:</text><text x="21.042" y="1.67" class="f">Brian</text><path class="j" d="M26.052 0h1v2.171h-1z"/><text x="26.052" y="1.67" class="k"></text></symbol><symbol id="16"><text y="1.67" class="i">⊙</text><text x="3.006" y="1.67" class="f">GitHub</text><text x="10.02" y="1.67" class="f">username</text><text x="19.038" y="1.67" class="i">:</text><text x="21.042" y="1.67" class="f">briaschlinkert</text></symbol><symbol id="17"><text y="1.67" class="l">⦿</text><text x="8.016" y="1.67" class="f">First</text><text x="14.028" y="1.67" class="f">Name</text><text x="19.038" y="1.67" class="i">:</text><text x="21.042" y="1.67" class="f">Brian</text></symbol><symbol id="18"><text y="1.67" class="i">⊙</text><text x="9.018" y="1.67" class="g">Last</text><text x="14.028" y="1.67" class="g">Name</text><text x="19.038" y="1.67" class="i">:</text><path class="j" d="M21.042 0h1v2.171h-1z"/><text x="21.042" y="1.67" class="k">S</text><text x="22.044" y="1.67" class="f">chlinkert</text></symbol><symbol id="19"><text y="1.67" class="i">⊙</text><text x="3.006" y="1.67" class="f">GitHub</text><text x="10.02" y="1.67" class="f">username</text><text x="19.038" y="1.67" class="i">:</text><text x="21.042" y="1.67" class="f">brianschlinkert</text></symbol><symbol id="20"><text y="1.67" class="l">⦿</text><text x="9.018" y="1.67" class="g">Last</text><text x="14.028" y="1.67" class="g">Name</text><text x="19.038" y="1.67" class="i">:</text><text x="21.042" y="1.67" class="f">W</text><path class="j" d="M22.044 0h1v2.171h-1z"/><text x="22.044" y="1.67" class="k"></text></symbol><symbol id="21"><text y="1.67" class="l">⦿</text><text x="9.018" y="1.67" class="g">Last</text><text x="14.028" y="1.67" class="g">Name</text><text x="19.038" y="1.67" class="i">:</text><text x="21.042" y="1.67" class="f">Wo</text><path class="j" d="M23.046 0h1v2.171h-1z"/><text x="23.046" y="1.67" class="k"></text></symbol><symbol id="22"><text y="1.67" class="i">⊙</text><text x="3.006" y="1.67" class="f">GitHub</text><text x="10.02" y="1.67" class="f">username</text><text x="19.038" y="1.67" class="i">:</text><text x="21.042" y="1.67" class="f">brianw</text></symbol><symbol id="23"><text y="1.67" class="l">⦿</text><text x="9.018" y="1.67" class="g">Last</text><text x="14.028" y="1.67" class="g">Name</text><text x="19.038" y="1.67" class="i">:</text><text x="21.042" y="1.67" class="f">Woo</text><path class="j" d="M24.048 0h1v2.171h-1z"/><text x="24.048" y="1.67" class="k"></text></symbol><symbol id="24"><text y="1.67" class="i">⊙</text><text x="3.006" y="1.67" class="f">GitHub</text><text x="10.02" y="1.67" class="f">username</text><text x="19.038" y="1.67" class="i">:</text><text x="21.042" y="1.67" class="f">brianwo</text></symbol><symbol id="25"><text y="1.67" class="l">⦿</text><text x="9.018" y="1.67" class="g">Last</text><text x="14.028" y="1.67" class="g">Name</text><text x="19.038" y="1.67" class="i">:</text><text x="21.042" y="1.67" class="f">Wood</text><path class="j" d="M25.05 0h1v2.171h-1z"/><text x="25.05" y="1.67" class="k"></text></symbol><symbol id="26"><text y="1.67" class="i">⊙</text><text x="3.006" y="1.67" class="f">GitHub</text><text x="10.02" y="1.67" class="f">username</text><text x="19.038" y="1.67" class="i">:</text><text x="21.042" y="1.67" class="f">brianwoo</text></symbol><symbol id="27"><text y="1.67" class="l">⦿</text><text x="9.018" y="1.67" class="g">Last</text><text x="14.028" y="1.67" class="g">Name</text><text x="19.038" y="1.67" class="i">:</text><text x="21.042" y="1.67" class="f">Woodw</text><path class="j" d="M26.052 0h1v2.171h-1z"/><text x="26.052" y="1.67" class="k"></text></symbol><symbol id="28"><text y="1.67" class="i">⊙</text><text x="3.006" y="1.67" class="f">GitHub</text><text x="10.02" y="1.67" class="f">username</text><text x="19.038" y="1.67" class="i">:</text><text x="21.042" y="1.67" class="f">brianwood</text></symbol><symbol id="29"><text y="1.67" class="l">⦿</text><text x="9.018" y="1.67" class="g">Last</text><text x="14.028" y="1.67" class="g">Name</text><text x="19.038" y="1.67" class="i">:</text><text x="21.042" y="1.67" class="f">Woodwa</text><path class="j" d="M27.054 0h1v2.171h-1z"/><text x="27.054" y="1.67" class="k"></text></symbol><symbol id="30"><text y="1.67" class="i">⊙</text><text x="3.006" y="1.67" class="f">GitHub</text><text x="10.02" y="1.67" class="f">username</text><text x="19.038" y="1.67" class="i">:</text><text x="21.042" y="1.67" class="f">brianwoodw</text></symbol><symbol id="31"><text y="1.67" class="l">⦿</text><text x="9.018" y="1.67" class="g">Last</text><text x="14.028" y="1.67" class="g">Name</text><text x="19.038" y="1.67" class="i">:</text><text x="21.042" y="1.67" class="f">Woodwar</text><path class="j" d="M28.056 0h1v2.171h-1z"/><text x="28.056" y="1.67" class="k"></text></symbol><symbol id="32"><text y="1.67" class="i">⊙</text><text x="3.006" y="1.67" class="f">GitHub</text><text x="10.02" y="1.67" class="f">username</text><text x="19.038" y="1.67" class="i">:</text><text x="21.042" y="1.67" class="f">brianwoodwa</text></symbol><symbol id="33"><text y="1.67" class="l">⦿</text><text x="9.018" y="1.67" class="g">Last</text><text x="14.028" y="1.67" class="g">Name</text><text x="19.038" y="1.67" class="i">:</text><text x="21.042" y="1.67" class="f">Woodward</text><path class="j" d="M29.058 0h1v2.171h-1z"/><text x="29.058" y="1.67" class="k"></text></symbol><symbol id="34"><text y="1.67" class="i">⊙</text><text x="3.006" y="1.67" class="f">GitHub</text><text x="10.02" y="1.67" class="f">username</text><text x="19.038" y="1.67" class="i">:</text><text x="21.042" y="1.67" class="f">brianwoodwar</text></symbol><symbol id="35"><text y="1.67" class="l">⦿</text><text x="9.018" y="1.67" class="f">Last</text><text x="14.028" y="1.67" class="f">Name</text><text x="19.038" y="1.67" class="i">:</text><text x="21.042" y="1.67" class="f">Woodward</text></symbol><symbol id="36"><text y="1.67" class="i">⊙</text><text x="3.006" y="1.67" class="g">GitHub</text><text x="10.02" y="1.67" class="g">username</text><text x="19.038" y="1.67" class="i">:</text><path class="j" d="M21.042 0h1v2.171h-1z"/><text x="21.042" y="1.67" class="k">b</text><text x="22.044" y="1.67" class="f">rianwoodward</text></symbol><symbol id="37"><text y="1.67" class="l">⦿</text><text x="3.006" y="1.67" class="g">GitHub</text><text x="10.02" y="1.67" class="g">username</text><text x="19.038" y="1.67" class="i">:</text><text x="21.042" y="1.67" class="f">d</text><path class="j" d="M22.044 0h1v2.171h-1z"/><text x="22.044" y="1.67" class="k"></text></symbol><symbol id="38"><text y="1.67" class="l">⦿</text><text x="3.006" y="1.67" class="g">GitHub</text><text x="10.02" y="1.67" class="g">username</text><text x="19.038" y="1.67" class="i">:</text><text x="21.042" y="1.67" class="f">do</text><path class="j" d="M23.046 0h1v2.171h-1z"/><text x="23.046" y="1.67" class="k"></text></symbol><symbol id="39"><text y="1.67" class="l">⦿</text><text x="3.006" y="1.67" class="g">GitHub</text><text x="10.02" y="1.67" class="g">username</text><text x="19.038" y="1.67" class="i">:</text><text x="21.042" y="1.67" class="f">doo</text><path class="j" d="M24.048 0h1v2.171h-1z"/><text x="24.048" y="1.67" class="k"></text></symbol><symbol id="40"><text y="1.67" class="l">⦿</text><text x="3.006" y="1.67" class="g">GitHub</text><text x="10.02" y="1.67" class="g">username</text><text x="19.038" y="1.67" class="i">:</text><text x="21.042" y="1.67" class="f">doow</text><path class="j" d="M25.05 0h1v2.171h-1z"/><text x="25.05" y="1.67" class="k"></text></symbol><symbol id="41"><text y="1.67" class="l">✔</text><text x="2.004" y="1.67" class="h">Please</text><text x="9.018" y="1.67" class="h">provide</text><text x="17.034" y="1.67" class="h">the</text><text x="21.042" y="1.67" class="h">following</text><text x="31.062" y="1.67" class="h">information:</text></symbol><symbol id="42"><text y="1.67" class="f">{</text></symbol><symbol id="43"><text x="4.008" y="1.67" class="g">&quot;user&quot;</text><text x="10.02" y="1.67" class="f">:</text><text x="12.024" y="1.67" class="f">{</text></symbol><symbol id="44"><text x="8.016" y="1.67" class="g">&quot;firstname&quot;</text><text x="19.038" y="1.67" class="f">:</text><text x="21.042" y="1.67" class="m">&quot;Brian&quot;</text><text x="28.056" y="1.67" class="f">,</text></symbol><symbol id="45"><text x="8.016" y="1.67" class="g">&quot;lastname&quot;</text><text x="18.036" y="1.67" class="f">:</text><text x="20.04" y="1.67" class="m">&quot;Woodward&quot;</text><text x="30.06" y="1.67" class="f">,</text></symbol><symbol id="46"><text x="8.016" y="1.67" class="g">&quot;username&quot;</text><text x="18.036" y="1.67" class="f">:</text><text x="20.04" y="1.67" class="m">&quot;doowb&quot;</text></symbol><symbol id="47"><text x="4.008" y="1.67" class="f">}</text></symbol><symbol id="48"><text y="1.67" class="f">}</text></symbol><symbol id="a"><path fill="transparent" d="M0 0h83v11H0z"/></symbol><symbol id="b"><path class="f" d="M0 0h1.102v2.171H0z"/></symbol></defs><path class="a" d="M0 0h83v21.71H0z"/><g style="animation-duration:11.735441s;animation-iteration-count:infinite;animation-name:o;animation-timing-function:steps(1,end)"><svg width="7387"><svg><use xlink:href="#a"/><use xlink:href="#b" x="-.004"/></svg><svg x="83"><use xlink:href="#a"/><use xlink:href="#b" x="9.996"/><use xlink:href="#1"/></svg><svg x="166"><use xlink:href="#a"/><use xlink:href="#b" x="48.996"/><use xlink:href="#2"/></svg><svg x="249"><use xlink:href="#a"/><use xlink:href="#b" x="-.004" y="2.146"/><use xlink:href="#2"/></svg><svg x="332"><use xlink:href="#a"/><use xlink:href="#2"/></svg><svg x="415"><use xlink:href="#a"/><use xlink:href="#2"/></svg><svg x="498"><use xlink:href="#a"/><use xlink:href="#2"/></svg><svg x="581"><use xlink:href="#a"/><use xlink:href="#2"/></svg><svg x="664"><use xlink:href="#a"/><use xlink:href="#2"/><use xlink:href="#3" y="2.171"/><use xlink:href="#4" y="4.342"/><use xlink:href="#5" y="6.513"/><use xlink:href="#6" y="8.684"/></svg><svg x="747"><use xlink:href="#a"/><use xlink:href="#2"/><use xlink:href="#3" y="2.171"/><use xlink:href="#4" y="4.342"/><use xlink:href="#5" y="6.513"/><use xlink:href="#6" y="8.684"/></svg><svg x="830"><use xlink:href="#a"/><use xlink:href="#2"/><use xlink:href="#3" y="2.171"/><use xlink:href="#4" y="4.342"/><use xlink:href="#5" y="6.513"/><use xlink:href="#6" y="8.684"/></svg><svg x="913"><use xlink:href="#a"/><use xlink:href="#2"/><use xlink:href="#3" y="2.171"/><use xlink:href="#4" y="4.342"/><use xlink:href="#5" y="6.513"/><use xlink:href="#6" y="8.684"/></svg><svg x="996"><use xlink:href="#a"/><use xlink:href="#2"/></svg><svg x="1079"><use xlink:href="#a"/><use xlink:href="#2"/><use xlink:href="#3" y="2.171"/><use xlink:href="#4" y="4.342"/><use xlink:href="#5" y="6.513"/><use xlink:href="#7" y="8.684"/></svg><svg x="1162"><use xlink:href="#a"/><use xlink:href="#2"/><use xlink:href="#3" y="2.171"/><use xlink:href="#4" y="4.342"/><use xlink:href="#5" y="6.513"/><use xlink:href="#7" y="8.684"/></svg><svg x="1245"><use xlink:href="#a"/><use xlink:href="#2"/><use xlink:href="#3" y="2.171"/><use xlink:href="#4" y="4.342"/><use xlink:href="#5" y="6.513"/><use xlink:href="#7" y="8.684"/></svg><svg x="1328"><use xlink:href="#a"/><use xlink:href="#2"/></svg><svg x="1411"><use xlink:href="#a"/><use xlink:href="#2"/><use xlink:href="#3" y="2.171"/><use xlink:href="#8" y="4.342"/><use xlink:href="#5" y="6.513"/><use xlink:href="#7" y="8.684"/></svg><svg x="1494"><use xlink:href="#a"/><use xlink:href="#2"/><use xlink:href="#3" y="2.171"/><use xlink:href="#8" y="4.342"/><use xlink:href="#5" y="6.513"/><use xlink:href="#7" y="8.684"/></svg><svg x="1577"><use xlink:href="#a"/><use xlink:href="#2"/><use xlink:href="#3" y="2.171"/><use xlink:href="#8" y="4.342"/><use xlink:href="#5" y="6.513"/><use xlink:href="#7" y="8.684"/></svg><svg x="1660"><use xlink:href="#a"/><use xlink:href="#2"/><use xlink:href="#3" y="2.171"/><use xlink:href="#9" y="4.342"/><use xlink:href="#5" y="6.513"/><use xlink:href="#10" y="8.684"/></svg><svg x="1743"><use xlink:href="#a"/><use xlink:href="#2"/><use xlink:href="#3" y="2.171"/><use xlink:href="#9" y="4.342"/><use xlink:href="#5" y="6.513"/><use xlink:href="#10" y="8.684"/></svg><svg x="1826"><use xlink:href="#a"/><use xlink:href="#2"/><use xlink:href="#3" y="2.171"/><use xlink:href="#9" y="4.342"/><use xlink:href="#5" y="6.513"/><use xlink:href="#10" y="8.684"/></svg><svg x="1909"><use xlink:href="#a"/><use xlink:href="#2"/><use xlink:href="#3" y="2.171"/><use xlink:href="#9" y="4.342"/><use xlink:href="#5" y="6.513"/><use xlink:href="#10" y="8.684"/></svg><svg x="1992"><use xlink:href="#a"/><use xlink:href="#2"/><use xlink:href="#3" y="2.171"/><use xlink:href="#11" y="4.342"/><use xlink:href="#5" y="6.513"/><use xlink:href="#12" y="8.684"/></svg><svg x="2075"><use xlink:href="#a"/><use xlink:href="#2"/><use xlink:href="#3" y="2.171"/><use xlink:href="#11" y="4.342"/><use xlink:href="#5" y="6.513"/><use xlink:href="#12" y="8.684"/></svg><svg x="2158"><use xlink:href="#a"/><use xlink:href="#2"/><use xlink:href="#3" y="2.171"/><use xlink:href="#13" y="4.342"/><use xlink:href="#5" y="6.513"/><use xlink:href="#14" y="8.684"/></svg><svg x="2241"><use xlink:href="#a"/><use xlink:href="#2"/><use xlink:href="#3" y="2.171"/><use xlink:href="#13" y="4.342"/><use xlink:href="#5" y="6.513"/><use xlink:href="#14" y="8.684"/></svg><svg x="2324"><use xlink:href="#a"/><use xlink:href="#2"/><use xlink:href="#3" y="2.171"/><use xlink:href="#13" y="4.342"/><use xlink:href="#5" y="6.513"/><use xlink:href="#14" y="8.684"/></svg><svg x="2407"><use xlink:href="#a"/><use xlink:href="#2"/><use xlink:href="#3" y="2.171"/><use xlink:href="#13" y="4.342"/><use xlink:href="#5" y="6.513"/><use xlink:href="#14" y="8.684"/></svg><svg x="2490"><use xlink:href="#a"/><use xlink:href="#2"/><use xlink:href="#3" y="2.171"/><use xlink:href="#15" y="4.342"/><use xlink:href="#5" y="6.513"/><use xlink:href="#16" y="8.684"/></svg><svg x="2573"><use xlink:href="#a"/><use xlink:href="#2"/><use xlink:href="#3" y="2.171"/><use xlink:href="#15" y="4.342"/><use xlink:href="#5" y="6.513"/><use xlink:href="#16" y="8.684"/></svg><svg x="2656"><use xlink:href="#a"/><use xlink:href="#2"/><use xlink:href="#3" y="2.171"/><use xlink:href="#15" y="4.342"/><use xlink:href="#5" y="6.513"/><use xlink:href="#16" y="8.684"/></svg><svg x="2739"><use xlink:href="#a"/><use xlink:href="#2"/><use xlink:href="#3" y="2.171"/><use xlink:href="#17" y="4.342"/><use xlink:href="#18" y="6.513"/><use xlink:href="#19" y="8.684"/></svg><svg x="2822"><use xlink:href="#a"/><use xlink:href="#2"/><use xlink:href="#3" y="2.171"/><use xlink:href="#17" y="4.342"/><use xlink:href="#18" y="6.513"/><use xlink:href="#19" y="8.684"/></svg><svg x="2905"><use xlink:href="#a"/><use xlink:href="#2"/><use xlink:href="#3" y="2.171"/><use xlink:href="#17" y="4.342"/><use xlink:href="#18" y="6.513"/><use xlink:href="#19" y="8.684"/></svg><svg x="2988"><use xlink:href="#a"/><use xlink:href="#2"/><use xlink:href="#3" y="2.171"/><use xlink:href="#17" y="4.342"/><use xlink:href="#20" y="6.513"/><use xlink:href="#19" y="8.684"/></svg><svg x="3071"><use xlink:href="#a"/><use xlink:href="#2"/><use xlink:href="#3" y="2.171"/><use xlink:href="#17" y="4.342"/><use xlink:href="#20" y="6.513"/><use xlink:href="#19" y="8.684"/></svg><svg x="3154"><use xlink:href="#a"/><use xlink:href="#2"/><use xlink:href="#3" y="2.171"/><use xlink:href="#17" y="4.342"/><use xlink:href="#20" y="6.513"/><use xlink:href="#19" y="8.684"/></svg><svg x="3237"><use xlink:href="#a"/><use xlink:href="#2"/><use xlink:href="#3" y="2.171"/><use xlink:href="#17" y="4.342"/><use xlink:href="#21" y="6.513"/><use xlink:href="#22" y="8.684"/></svg><svg x="3320"><use xlink:href="#a"/><use xlink:href="#2"/><use xlink:href="#3" y="2.171"/><use xlink:href="#17" y="4.342"/><use xlink:href="#21" y="6.513"/><use xlink:href="#22" y="8.684"/></svg><svg x="3403"><use xlink:href="#a"/><use xlink:href="#2"/><use xlink:href="#3" y="2.171"/><use xlink:href="#17" y="4.342"/><use xlink:href="#21" y="6.513"/><use xlink:href="#22" y="8.684"/></svg><svg x="3486"><use xlink:href="#a"/><use xlink:href="#2"/><use xlink:href="#3" y="2.171"/><use xlink:href="#17" y="4.342"/><use xlink:href="#23" y="6.513"/><use xlink:href="#24" y="8.684"/></svg><svg x="3569"><use xlink:href="#a"/><use xlink:href="#2"/><use xlink:href="#3" y="2.171"/><use xlink:href="#17" y="4.342"/><use xlink:href="#23" y="6.513"/><use xlink:href="#24" y="8.684"/></svg><svg x="3652"><use xlink:href="#a"/><use xlink:href="#2"/><use xlink:href="#3" y="2.171"/><use xlink:href="#17" y="4.342"/><use xlink:href="#23" y="6.513"/><use xlink:href="#24" y="8.684"/></svg><svg x="3735"><use xlink:href="#a"/><use xlink:href="#2"/><use xlink:href="#3" y="2.171"/><use xlink:href="#17" y="4.342"/><use xlink:href="#25" y="6.513"/><use xlink:href="#26" y="8.684"/></svg><svg x="3818"><use xlink:href="#a"/><use xlink:href="#2"/><use xlink:href="#3" y="2.171"/><use xlink:href="#17" y="4.342"/><use xlink:href="#25" y="6.513"/><use xlink:href="#26" y="8.684"/></svg><svg x="3901"><use xlink:href="#a"/><use xlink:href="#2"/><use xlink:href="#3" y="2.171"/><use xlink:href="#17" y="4.342"/><use xlink:href="#25" y="6.513"/><use xlink:href="#26" y="8.684"/></svg><svg x="3984"><use xlink:href="#a"/><use xlink:href="#2"/><use xlink:href="#3" y="2.171"/><use xlink:href="#17" y="4.342"/><use xlink:href="#25" y="6.513"/><use xlink:href="#26" y="8.684"/></svg><svg x="4067"><use xlink:href="#a"/><use xlink:href="#2"/><use xlink:href="#3" y="2.171"/><use xlink:href="#17" y="4.342"/><use xlink:href="#27" y="6.513"/><use xlink:href="#28" y="8.684"/></svg><svg x="4150"><use xlink:href="#a"/><use xlink:href="#2"/><use xlink:href="#3" y="2.171"/><use xlink:href="#17" y="4.342"/><use xlink:href="#27" y="6.513"/><use xlink:href="#28" y="8.684"/></svg><svg x="4233"><use xlink:href="#a"/><use xlink:href="#2"/></svg><svg x="4316"><use xlink:href="#a"/><use xlink:href="#2"/><use xlink:href="#3" y="2.171"/><use xlink:href="#17" y="4.342"/><use xlink:href="#29" y="6.513"/><use xlink:href="#30" y="8.684"/></svg><svg x="4399"><use xlink:href="#a"/><use xlink:href="#2"/><use xlink:href="#3" y="2.171"/><use xlink:href="#17" y="4.342"/><use xlink:href="#29" y="6.513"/><use xlink:href="#30" y="8.684"/></svg><svg x="4482"><use xlink:href="#a"/><use xlink:href="#2"/><use xlink:href="#3" y="2.171"/><use xlink:href="#17" y="4.342"/><use xlink:href="#29" y="6.513"/><use xlink:href="#30" y="8.684"/></svg><svg x="4565"><use xlink:href="#a"/><use xlink:href="#2"/><use xlink:href="#3" y="2.171"/><use xlink:href="#17" y="4.342"/><use xlink:href="#31" y="6.513"/><use xlink:href="#32" y="8.684"/></svg><svg x="4648"><use xlink:href="#a"/><use xlink:href="#2"/><use xlink:href="#3" y="2.171"/><use xlink:href="#17" y="4.342"/><use xlink:href="#31" y="6.513"/><use xlink:href="#32" y="8.684"/></svg><svg x="4731"><use xlink:href="#a"/><use xlink:href="#2"/><use xlink:href="#3" y="2.171"/><use xlink:href="#17" y="4.342"/><use xlink:href="#31" y="6.513"/><use xlink:href="#32" y="8.684"/></svg><svg x="4814"><use xlink:href="#a"/><use xlink:href="#2"/><use xlink:href="#3" y="2.171"/><use xlink:href="#17" y="4.342"/><use xlink:href="#33" y="6.513"/><use xlink:href="#34" y="8.684"/></svg><svg x="4897"><use xlink:href="#a"/><use xlink:href="#2"/><use xlink:href="#3" y="2.171"/><use xlink:href="#17" y="4.342"/><use xlink:href="#33" y="6.513"/><use xlink:href="#34" y="8.684"/></svg><svg x="4980"><use xlink:href="#a"/><use xlink:href="#2"/><use xlink:href="#3" y="2.171"/><use xlink:href="#17" y="4.342"/><use xlink:href="#33" y="6.513"/><use xlink:href="#34" y="8.684"/></svg><svg x="5063"><use xlink:href="#a"/><use xlink:href="#2"/><use xlink:href="#3" y="2.171"/><use xlink:href="#17" y="4.342"/><use xlink:href="#33" y="6.513"/><use xlink:href="#34" y="8.684"/></svg><svg x="5146"><use xlink:href="#a"/><use xlink:href="#2"/><use xlink:href="#3" y="2.171"/><use xlink:href="#17" y="4.342"/><use xlink:href="#35" y="6.513"/><use xlink:href="#36" y="8.684"/></svg><svg x="5229"><use xlink:href="#a"/><use xlink:href="#2"/><use xlink:href="#3" y="2.171"/><use xlink:href="#17" y="4.342"/><use xlink:href="#35" y="6.513"/><use xlink:href="#36" y="8.684"/></svg><svg x="5312"><use xlink:href="#a"/><use xlink:href="#2"/><use xlink:href="#3" y="2.171"/><use xlink:href="#17" y="4.342"/><use xlink:href="#35" y="6.513"/><use xlink:href="#36" y="8.684"/></svg><svg x="5395"><use xlink:href="#a"/><use xlink:href="#2"/><use xlink:href="#3" y="2.171"/><use xlink:href="#17" y="4.342"/><use xlink:href="#35" y="6.513"/><use xlink:href="#37" y="8.684"/></svg><svg x="5478"><use xlink:href="#a"/><use xlink:href="#2"/><use xlink:href="#3" y="2.171"/><use xlink:href="#17" y="4.342"/><use xlink:href="#35" y="6.513"/><use xlink:href="#37" y="8.684"/></svg><svg x="5561"><use xlink:href="#a"/><use xlink:href="#2"/></svg><svg x="5644"><use xlink:href="#a"/><use xlink:href="#2"/><use xlink:href="#3" y="2.171"/><use xlink:href="#17" y="4.342"/><use xlink:href="#35" y="6.513"/><use xlink:href="#38" y="8.684"/></svg><svg x="5727"><use xlink:href="#a"/><use xlink:href="#2"/><use xlink:href="#3" y="2.171"/><use xlink:href="#17" y="4.342"/><use xlink:href="#35" y="6.513"/><use xlink:href="#38" y="8.684"/></svg><svg x="5810"><use xlink:href="#a"/><use xlink:href="#2"/></svg><svg x="5893"><use xlink:href="#a"/><use xlink:href="#2"/><use xlink:href="#3" y="2.171"/><use xlink:href="#17" y="4.342"/><use xlink:href="#35" y="6.513"/><use xlink:href="#39" y="8.684"/></svg><svg x="5976"><use xlink:href="#a"/><use xlink:href="#2"/><use xlink:href="#3" y="2.171"/><use xlink:href="#17" y="4.342"/><use xlink:href="#35" y="6.513"/><use xlink:href="#39" y="8.684"/></svg><svg x="6059"><use xlink:href="#a"/><use xlink:href="#2"/></svg><svg x="6142"><use xlink:href="#a"/><use xlink:href="#2"/><use xlink:href="#3" y="2.171"/><use xlink:href="#17" y="4.342"/><use xlink:href="#35" y="6.513"/><use xlink:href="#40" y="8.684"/></svg><svg x="6225"><use xlink:href="#a"/><use xlink:href="#2"/><use xlink:href="#3" y="2.171"/><use xlink:href="#17" y="4.342"/><use xlink:href="#35" y="6.513"/><use xlink:href="#40" y="8.684"/></svg><svg x="6308"><use xlink:href="#a"/><use xlink:href="#2"/></svg><svg x="6391"><use xlink:href="#a"/><use xlink:href="#2"/><use xlink:href="#3" y="2.171"/><use xlink:href="#17" y="4.342"/><use xlink:href="#35" y="6.513"/><text y="10.354" class="l">⦿</text><text x="3.006" y="10.354" class="g">GitHub</text><text x="10.02" y="10.354" class="g">username</text><text x="19.038" y="10.354" class="i">:</text><text x="21.042" y="10.354" class="f">doowb</text><path class="j" d="M26.052 8.684h1v2.171h-1z"/><text x="26.052" y="10.354" class="k"></text></svg><svg x="6474"><use xlink:href="#a"/><use xlink:href="#2"/><use xlink:href="#41" y="2.171"/></svg><svg x="6557"><use xlink:href="#a"/><use xlink:href="#2"/><use xlink:href="#41" y="2.171"/></svg><svg x="6640"><use xlink:href="#a"/><use xlink:href="#2"/><use xlink:href="#41" y="2.171"/><use xlink:href="#42" y="4.342"/><use xlink:href="#43" y="6.513"/><use xlink:href="#44" y="8.684"/><use xlink:href="#45" y="10.855"/><use xlink:href="#46" y="13.026"/><use xlink:href="#47" y="15.197"/><use xlink:href="#48" y="17.368"/></svg><svg x="6723"><use xlink:href="#a"/><use xlink:href="#b" x="-.004" y="19.514"/><use xlink:href="#2"/><use xlink:href="#41" y="2.171"/><use xlink:href="#42" y="4.342"/><use xlink:href="#43" y="6.513"/><use xlink:href="#44" y="8.684"/><use xlink:href="#45" y="10.855"/><use xlink:href="#46" y="13.026"/><use xlink:href="#47" y="15.197"/><use xlink:href="#48" y="17.368"/></svg><svg x="6806"><use xlink:href="#a"/><use xlink:href="#b" x="-.004" y="19.514"/><use xlink:href="#2"/><use xlink:href="#41" y="2.171"/><use xlink:href="#42" y="4.342"/><use xlink:href="#43" y="6.513"/><use xlink:href="#44" y="8.684"/><use xlink:href="#45" y="10.855"/><use xlink:href="#46" y="13.026"/><use xlink:href="#47" y="15.197"/><use xlink:href="#48" y="17.368"/></svg><svg x="6889"><use xlink:href="#a"/><use xlink:href="#b" x="-.004" y="19.514"/><use xlink:href="#2"/><use xlink:href="#41" y="2.171"/><use xlink:href="#42" y="4.342"/><use xlink:href="#43" y="6.513"/><use xlink:href="#44" y="8.684"/><use xlink:href="#45" y="10.855"/><use xlink:href="#46" y="13.026"/><use xlink:href="#47" y="15.197"/><use xlink:href="#48" y="17.368"/></svg><svg x="6972"><use xlink:href="#a"/><use xlink:href="#b" x="-.004" y="19.514"/><use xlink:href="#2"/><use xlink:href="#41" y="2.171"/><use xlink:href="#42" y="4.342"/><use xlink:href="#43" y="6.513"/><use xlink:href="#44" y="8.684"/><use xlink:href="#45" y="10.855"/><use xlink:href="#46" y="13.026"/><use xlink:href="#47" y="15.197"/><use xlink:href="#48" y="17.368"/></svg><svg x="7055"><use xlink:href="#a"/><use xlink:href="#b" x="-.004" y="19.514"/><use xlink:href="#2"/><use xlink:href="#41" y="2.171"/><use xlink:href="#42" y="4.342"/><use xlink:href="#43" y="6.513"/><use xlink:href="#44" y="8.684"/><use xlink:href="#45" y="10.855"/><use xlink:href="#46" y="13.026"/><use xlink:href="#47" y="15.197"/><use xlink:href="#48" y="17.368"/></svg><svg x="7138"><use xlink:href="#a"/><use xlink:href="#b" x="-.004" y="19.514"/><use xlink:href="#2"/><use xlink:href="#41" y="2.171"/><use xlink:href="#42" y="4.342"/><use xlink:href="#43" y="6.513"/><use xlink:href="#44" y="8.684"/><use xlink:href="#45" y="10.855"/><use xlink:href="#46" y="13.026"/><use xlink:href="#47" y="15.197"/><use xlink:href="#48" y="17.368"/></svg><svg x="7221"><use xlink:href="#a"/><use xlink:href="#b" x="9.996" y="19.514"/><use xlink:href="#2"/><use xlink:href="#41" y="2.171"/><use xlink:href="#42" y="4.342"/><use xlink:href="#43" y="6.513"/><use xlink:href="#44" y="8.684"/><use xlink:href="#45" y="10.855"/><use xlink:href="#46" y="13.026"/><use xlink:href="#47" y="15.197"/><use xlink:href="#48" y="17.368"/><use xlink:href="#1" y="19.539"/></svg><svg x="7304"><use xlink:href="#a"/><use xlink:href="#b" x="-.004" y="21.685"/><use xlink:href="#2"/><use xlink:href="#41" y="2.171"/><use xlink:href="#42" y="4.342"/><use xlink:href="#43" y="6.513"/><use xlink:href="#44" y="8.684"/><use xlink:href="#45" y="10.855"/><use xlink:href="#46" y="13.026"/><use xlink:href="#47" y="15.197"/><use xlink:href="#48" y="17.368"/><text y="21.209" class="f">bash-4.4$</text><text x="10.02" y="21.209" class="f">exit</text></svg></svg></g></g></svg></svg>