<svg xmlns="http://www.w3.org/2000/svg" xmlns:xlink="http://www.w3.org/1999/xlink" width="870" height="277.1"><rect width="870" height="277.1" rx="5" ry="5" class="a"/><svg y="0%" x="0%"><circle cx="20" cy="20" r="6" fill="#ff5f58"/><circle cx="40" cy="20" r="6" fill="#ffbd2e"/><circle cx="60" cy="20" r="6" fill="#18c132"/></svg><svg height="217.1" viewBox="0 0 83 21.71" width="830" x="15" xmlns="http://www.w3.org/2000/svg" xmlns:xlink="http://www.w3.org/1999/xlink" y="50"><style>@keyframes o{0%{transform:translateX(0)}.1%{transform:translateX(-83px)}3.6%{transform:translateX(-166px)}9.4%{transform:translateX(-249px)}11%{transform:translateX(-332px)}11.1%{transform:translateX(-1079px)}20.5%{transform:translateX(-1411px)}22.3%{transform:translateX(-1743px)}24%{transform:translateX(-1909px)}24.1%{transform:translateX(-1992px)}30.3%{transform:translateX(-2241px)}35.8%{transform:translateX(-2490px)}37.5%{transform:translateX(-2822px)}39.3%{transform:translateX(-3071px)}41.3%{transform:translateX(-3320px)}42.9%{transform:translateX(-3569px)}44.4%{transform:translateX(-3901px)}46.1%{transform:translateX(-4233px)}47.5%{transform:translateX(-4482px)}49.5%{transform:translateX(-4731px)}52.7%{transform:translateX(-4980px)}58.6%{transform:translateX(-5229px)}62%{transform:translateX(-5478px)}63.6%{transform:translateX(-5810px)}65.3%{transform:translateX(-6059px)}67.8%{transform:translateX(-6308px)}69.4%{transform:translateX(-6557px)}70.9%{transform:translateX(-6806px)}73%{transform:translateX(-7055px)}74.7%{transform:translateX(-7304px)}76.3%{transform:translateX(-7553px)}78.1%{transform:translateX(-7802px)}79.4%{transform:translateX(-8051px)}81%{transform:translateX(-8300px)}82.8%{transform:translateX(-8549px)}88.1%{transform:translateX(-8715px)}88.2%{transform:translateX(-9462px)}to{transform:translateX(-9545px)}}.a{fill:#272822}.f{fill:#fff}.g{fill:#3791a5}.h{fill:#fff;font-weight:700}.i{fill:#615e4b}.j{fill:#66c2cd}.l{fill:#609a09}.m{fill:#8a0031}</style><g font-size="1.67" font-family="Monaco,Consolas,Menlo,'Bitstream Vera Sans Mono','Powerline Symbols',monospace"><defs><symbol id="1"><text y="1.67" class="f">bash-4.4$</text></symbol><symbol id="2"><text y="1.67" class="f">bash-4.4$</text><text x="10.02" y="1.67" class="f">node</text><text x="15.03" y="1.67" class="f">lib/prompts/form/getting-started.js</text></symbol><symbol id="3"><text y="1.67" class="g">?</text><text x="2.004" y="1.67" class="h">Please</text><text x="9.018" y="1.67" class="h">provide</text><text x="17.034" y="1.67" class="h">the</text><text x="21.042" y="1.67" class="h">following</text><text x="31.062" y="1.67" class="h">information:</text></symbol><symbol id="4"><text y="1.67" class="i">⊙</text><text x="8.016" y="1.67" class="g">First</text><text x="14.028" y="1.67" class="g">Name</text><text x="19.038" y="1.67" class="i">:</text><path class="j" d="M21.042 0h1v2.171h-1z"/><text x="21.042" y="1.67" class="k"></text></symbol><symbol id="5"><text y="1.67" class="i">⊙</text><text x="9.018" y="1.67" class="f">Last</text><text x="14.028" y="1.67" class="f">Name</text><text x="19.038" y="1.67" class="i">:</text><text x="21.042" y="1.67" class="f">…</text></symbol><symbol id="6"><text y="1.67" class="i">⊙</text><text x="3.006" y="1.67" class="f">GitHub</text><text x="10.02" y="1.67" class="f">username</text><text x="19.038" y="1.67" class="i">:</text><text x="21.042" y="1.67" class="f">…</text></symbol><symbol id="7"><text y="1.67" class="l">⦿</text><text x="8.016" y="1.67" class="g">First</text><text x="14.028" y="1.67" class="g">Name</text><text x="19.038" y="1.67" class="i">:</text><text x="21.042" y="1.67" class="f">J</text><path class="j" d="M22.044 0h1v2.171h-1z"/><text x="22.044" y="1.67" class="k"></text></symbol><symbol id="8"><text y="1.67" class="l">⦿</text><text x="8.016" y="1.67" class="g">First</text><text x="14.028" y="1.67" class="g">Name</text><text x="19.038" y="1.67" class="i">:</text><text x="21.042" y="1.67" class="f">Jo</text><path class="j" d="M23.046 0h1v2.171h-1z"/><text x="23.046" y="1.67" class="k"></text></symbol><symbol id="9"><text y="1.67" class="l">⦿</text><text x="8.016" y="1.67" class="g">First</text><text x="14.028" y="1.67" class="g">Name</text><text x="19.038" y="1.67" class="i">:</text><text x="21.042" y="1.67" class="f">Jon</text><path class="j" d="M24.048 0h1v2.171h-1z"/><text x="24.048" y="1.67" class="k"></text></symbol><symbol id="10"><text y="1.67" class="l">⦿</text><text x="8.016" y="1.67" class="f">First</text><text x="14.028" y="1.67" class="f">Name</text><text x="19.038" y="1.67" class="i">:</text><text x="21.042" y="1.67" class="f">Jon</text></symbol><symbol id="11"><text y="1.67" class="i">⊙</text><text x="9.018" y="1.67" class="g">Last</text><text x="14.028" y="1.67" class="g">Name</text><text x="19.038" y="1.67" class="i">:</text><path class="j" d="M21.042 0h1v2.171h-1z"/><text x="21.042" y="1.67" class="k"></text></symbol><symbol id="12"><text y="1.67" class="l">⦿</text><text x="9.018" y="1.67" class="g">Last</text><text x="14.028" y="1.67" class="g">Name</text><text x="19.038" y="1.67" class="i">:</text><text x="21.042" y="1.67" class="f">S</text><path class="j" d="M22.044 0h1v2.171h-1z"/><text x="22.044" y="1.67" class="k"></text></symbol><symbol id="13"><text y="1.67" class="l">⦿</text><text x="9.018" y="1.67" class="g">Last</text><text x="14.028" y="1.67" class="g">Name</text><text x="19.038" y="1.67" class="i">:</text><text x="21.042" y="1.67" class="f">Sc</text><path class="j" d="M23.046 0h1v2.171h-1z"/><text x="23.046" y="1.67" class="k"></text></symbol><symbol id="14"><text y="1.67" class="l">⦿</text><text x="9.018" y="1.67" class="g">Last</text><text x="14.028" y="1.67" class="g">Name</text><text x="19.038" y="1.67" class="i">:</text><text x="21.042" y="1.67" class="f">Sch</text><path class="j" d="M24.048 0h1v2.171h-1z"/><text x="24.048" y="1.67" class="k"></text></symbol><symbol id="15"><text y="1.67" class="l">⦿</text><text x="9.018" y="1.67" class="g">Last</text><text x="14.028" y="1.67" class="g">Name</text><text x="19.038" y="1.67" class="i">:</text><text x="21.042" y="1.67" class="f">Schl</text><path class="j" d="M25.05 0h1v2.171h-1z"/><text x="25.05" y="1.67" class="k"></text></symbol><symbol id="16"><text y="1.67" class="l">⦿</text><text x="9.018" y="1.67" class="g">Last</text><text x="14.028" y="1.67" class="g">Name</text><text x="19.038" y="1.67" class="i">:</text><text x="21.042" y="1.67" class="f">Schli</text><path class="j" d="M26.052 0h1v2.171h-1z"/><text x="26.052" y="1.67" class="k"></text></symbol><symbol id="17"><text y="1.67" class="l">⦿</text><text x="9.018" y="1.67" class="g">Last</text><text x="14.028" y="1.67" class="g">Name</text><text x="19.038" y="1.67" class="i">:</text><text x="21.042" y="1.67" class="f">Schlin</text><path class="j" d="M27.054 0h1v2.171h-1z"/><text x="27.054" y="1.67" class="k"></text></symbol><symbol id="18"><text y="1.67" class="l">⦿</text><text x="9.018" y="1.67" class="g">Last</text><text x="14.028" y="1.67" class="g">Name</text><text x="19.038" y="1.67" class="i">:</text><text x="21.042" y="1.67" class="f">Schlink</text><path class="j" d="M28.056 0h1v2.171h-1z"/><text x="28.056" y="1.67" class="k"></text></symbol><symbol id="19"><text y="1.67" class="l">⦿</text><text x="9.018" y="1.67" class="g">Last</text><text x="14.028" y="1.67" class="g">Name</text><text x="19.038" y="1.67" class="i">:</text><text x="21.042" y="1.67" class="f">Schlinke</text><path class="j" d="M29.058 0h1v2.171h-1z"/><text x="29.058" y="1.67" class="k"></text></symbol><symbol id="20"><text y="1.67" class="l">⦿</text><text x="9.018" y="1.67" class="g">Last</text><text x="14.028" y="1.67" class="g">Name</text><text x="19.038" y="1.67" class="i">:</text><text x="21.042" y="1.67" class="f">Schlinker</text><path class="j" d="M30.06 0h1v2.171h-1z"/><text x="30.06" y="1.67" class="k"></text></symbol><symbol id="21"><text y="1.67" class="l">⦿</text><text x="9.018" y="1.67" class="g">Last</text><text x="14.028" y="1.67" class="g">Name</text><text x="19.038" y="1.67" class="i">:</text><text x="21.042" y="1.67" class="f">Schlinkert</text><path class="j" d="M31.062 0h1v2.171h-1z"/><text x="31.062" y="1.67" class="k"></text></symbol><symbol id="22"><text y="1.67" class="l">⦿</text><text x="9.018" y="1.67" class="f">Last</text><text x="14.028" y="1.67" class="f">Name</text><text x="19.038" y="1.67" class="i">:</text><text x="21.042" y="1.67" class="f">Schlinkert</text></symbol><symbol id="23"><text y="1.67" class="i">⊙</text><text x="3.006" y="1.67" class="g">GitHub</text><text x="10.02" y="1.67" class="g">username</text><text x="19.038" y="1.67" class="i">:</text><path class="j" d="M21.042 0h1v2.171h-1z"/><text x="21.042" y="1.67" class="k"></text></symbol><symbol id="24"><text y="1.67" class="l">⦿</text><text x="3.006" y="1.67" class="g">GitHub</text><text x="10.02" y="1.67" class="g">username</text><text x="19.038" y="1.67" class="i">:</text><text x="21.042" y="1.67" class="f">j</text><path class="j" d="M22.044 0h1v2.171h-1z"/><text x="22.044" y="1.67" class="k"></text></symbol><symbol id="25"><text y="1.67" class="l">⦿</text><text x="3.006" y="1.67" class="g">GitHub</text><text x="10.02" y="1.67" class="g">username</text><text x="19.038" y="1.67" class="i">:</text><text x="21.042" y="1.67" class="f">jo</text><path class="j" d="M23.046 0h1v2.171h-1z"/><text x="23.046" y="1.67" class="k"></text></symbol><symbol id="26"><text y="1.67" class="l">⦿</text><text x="3.006" y="1.67" class="g">GitHub</text><text x="10.02" y="1.67" class="g">username</text><text x="19.038" y="1.67" class="i">:</text><text x="21.042" y="1.67" class="f">jon</text><path class="j" d="M24.048 0h1v2.171h-1z"/><text x="24.048" y="1.67" class="k"></text></symbol><symbol id="27"><text y="1.67" class="l">⦿</text><text x="3.006" y="1.67" class="g">GitHub</text><text x="10.02" y="1.67" class="g">username</text><text x="19.038" y="1.67" class="i">:</text><text x="21.042" y="1.67" class="f">jons</text><path class="j" d="M25.05 0h1v2.171h-1z"/><text x="25.05" y="1.67" class="k"></text></symbol><symbol id="28"><text y="1.67" class="l">⦿</text><text x="3.006" y="1.67" class="g">GitHub</text><text x="10.02" y="1.67" class="g">username</text><text x="19.038" y="1.67" class="i">:</text><text x="21.042" y="1.67" class="f">jonsc</text><path class="j" d="M26.052 0h1v2.171h-1z"/><text x="26.052" y="1.67" class="k"></text></symbol><symbol id="29"><text y="1.67" class="l">⦿</text><text x="3.006" y="1.67" class="g">GitHub</text><text x="10.02" y="1.67" class="g">username</text><text x="19.038" y="1.67" class="i">:</text><text x="21.042" y="1.67" class="f">jonsch</text><path class="j" d="M27.054 0h1v2.171h-1z"/><text x="27.054" y="1.67" class="k"></text></symbol><symbol id="30"><text y="1.67" class="l">⦿</text><text x="3.006" y="1.67" class="g">GitHub</text><text x="10.02" y="1.67" class="g">username</text><text x="19.038" y="1.67" class="i">:</text><text x="21.042" y="1.67" class="f">jonschl</text><path class="j" d="M28.056 0h1v2.171h-1z"/><text x="28.056" y="1.67" class="k"></text></symbol><symbol id="31"><text y="1.67" class="l">⦿</text><text x="3.006" y="1.67" class="g">GitHub</text><text x="10.02" y="1.67" class="g">username</text><text x="19.038" y="1.67" class="i">:</text><text x="21.042" y="1.67" class="f">jonschli</text><path class="j" d="M29.058 0h1v2.171h-1z"/><text x="29.058" y="1.67" class="k"></text></symbol><symbol id="32"><text y="1.67" class="l">⦿</text><text x="3.006" y="1.67" class="g">GitHub</text><text x="10.02" y="1.67" class="g">username</text><text x="19.038" y="1.67" class="i">:</text><text x="21.042" y="1.67" class="f">jonschlin</text><path class="j" d="M30.06 0h1v2.171h-1z"/><text x="30.06" y="1.67" class="k"></text></symbol><symbol id="33"><text y="1.67" class="l">⦿</text><text x="3.006" y="1.67" class="g">GitHub</text><text x="10.02" y="1.67" class="g">username</text><text x="19.038" y="1.67" class="i">:</text><text x="21.042" y="1.67" class="f">jonschlink</text><path class="j" d="M31.062 0h1v2.171h-1z"/><text x="31.062" y="1.67" class="k"></text></symbol><symbol id="34"><text y="1.67" class="l">⦿</text><text x="3.006" y="1.67" class="g">GitHub</text><text x="10.02" y="1.67" class="g">username</text><text x="19.038" y="1.67" class="i">:</text><text x="21.042" y="1.67" class="f">jonschlinke</text><path class="j" d="M32.064 0h1v2.171h-1z"/><text x="32.064" y="1.67" class="k"></text></symbol><symbol id="35"><text y="1.67" class="l">⦿</text><text x="3.006" y="1.67" class="g">GitHub</text><text x="10.02" y="1.67" class="g">username</text><text x="19.038" y="1.67" class="i">:</text><text x="21.042" y="1.67" class="f">jonschlinker</text><path class="j" d="M33.066 0h1v2.171h-1z"/><text x="33.066" y="1.67" class="k"></text></symbol><symbol id="36"><text y="1.67" class="l">✔</text><text x="2.004" y="1.67" class="h">Please</text><text x="9.018" y="1.67" class="h">provide</text><text x="17.034" y="1.67" class="h">the</text><text x="21.042" y="1.67" class="h">following</text><text x="31.062" y="1.67" class="h">information:</text></symbol><symbol id="37"><text y="1.67" class="f">{</text></symbol><symbol id="38"><text x="4.008" y="1.67" class="g">&quot;user&quot;</text><text x="10.02" y="1.67" class="f">:</text><text x="12.024" y="1.67" class="f">{</text></symbol><symbol id="39"><text x="8.016" y="1.67" class="g">&quot;firstname&quot;</text><text x="19.038" y="1.67" class="f">:</text><text x="21.042" y="1.67" class="m">&quot;Jon&quot;</text><text x="26.052" y="1.67" class="f">,</text></symbol><symbol id="40"><text x="8.016" y="1.67" class="g">&quot;lastname&quot;</text><text x="18.036" y="1.67" class="f">:</text><text x="20.04" y="1.67" class="m">&quot;Schlinkert&quot;</text><text x="32.064" y="1.67" class="f">,</text></symbol><symbol id="41"><text x="8.016" y="1.67" class="g">&quot;username&quot;</text><text x="18.036" y="1.67" class="f">:</text><text x="20.04" y="1.67" class="m">&quot;jonschlinkert&quot;</text></symbol><symbol id="42"><text x="4.008" y="1.67" class="f">}</text></symbol><symbol id="43"><text y="1.67" class="f">}</text></symbol><symbol id="a"><path fill="transparent" d="M0 0h83v11H0z"/></symbol><symbol id="b"><path class="f" d="M0 0h1.102v2.171H0z"/></symbol></defs><path class="a" d="M0 0h83v21.71H0z"/><g style="animation-duration:14.111601s;animation-iteration-count:infinite;animation-name:o;animation-timing-function:steps(1,end)"><svg width="9628"><svg><use xlink:href="#a"/><use xlink:href="#b" x="-.004"/></svg><svg x="83"><use xlink:href="#a"/><use xlink:href="#b" x="9.996"/><use xlink:href="#1"/></svg><svg x="166"><use xlink:href="#a"/><use xlink:href="#b" x="49.996"/><use xlink:href="#2"/></svg><svg x="249"><use xlink:href="#a"/><use xlink:href="#b" x="-.004" y="2.146"/><use xlink:href="#2"/></svg><svg x="332"><use xlink:href="#a"/><use xlink:href="#2"/></svg><svg x="415"><use xlink:href="#a"/><use xlink:href="#2"/></svg><svg x="498"><use xlink:href="#a"/><use xlink:href="#2"/></svg><svg x="581"><use xlink:href="#a"/><use xlink:href="#2"/></svg><svg x="664"><use xlink:href="#a"/><use xlink:href="#2"/><use xlink:href="#3" y="2.171"/><use xlink:href="#4" y="4.342"/><use xlink:href="#5" y="6.513"/><use xlink:href="#6" y="8.684"/></svg><svg x="747"><use xlink:href="#a"/><use xlink:href="#2"/><use xlink:href="#3" y="2.171"/><use xlink:href="#4" y="4.342"/><use xlink:href="#5" y="6.513"/><use xlink:href="#6" y="8.684"/></svg><svg x="830"><use xlink:href="#a"/><use xlink:href="#2"/><use xlink:href="#3" y="2.171"/><use xlink:href="#4" y="4.342"/><use xlink:href="#5" y="6.513"/><use xlink:href="#6" y="8.684"/></svg><svg x="913"><use xlink:href="#a"/><use xlink:href="#2"/><use xlink:href="#3" y="2.171"/><use xlink:href="#4" y="4.342"/><use xlink:href="#5" y="6.513"/><use xlink:href="#6" y="8.684"/></svg><svg x="996"><use xlink:href="#a"/><use xlink:href="#2"/></svg><svg x="1079"><use xlink:href="#a"/><use xlink:href="#2"/><use xlink:href="#3" y="2.171"/><use xlink:href="#4" y="4.342"/><use xlink:href="#5" y="6.513"/><use xlink:href="#6" y="8.684"/></svg><svg x="1162"><use xlink:href="#a"/><use xlink:href="#2"/><use xlink:href="#3" y="2.171"/><use xlink:href="#4" y="4.342"/><use xlink:href="#5" y="6.513"/><use xlink:href="#6" y="8.684"/></svg><svg x="1245"><use xlink:href="#a"/><use xlink:href="#2"/><use xlink:href="#3" y="2.171"/><use xlink:href="#4" y="4.342"/><use xlink:href="#5" y="6.513"/><use xlink:href="#6" y="8.684"/></svg><svg x="1328"><use xlink:href="#a"/><use xlink:href="#2"/></svg><svg x="1411"><use xlink:href="#a"/><use xlink:href="#2"/><use xlink:href="#3" y="2.171"/><use xlink:href="#7" y="4.342"/><use xlink:href="#5" y="6.513"/><use xlink:href="#6" y="8.684"/></svg><svg x="1494"><use xlink:href="#a"/><use xlink:href="#2"/><use xlink:href="#3" y="2.171"/><use xlink:href="#7" y="4.342"/><use xlink:href="#5" y="6.513"/><use xlink:href="#6" y="8.684"/></svg><svg x="1577"><use xlink:href="#a"/><use xlink:href="#2"/><use xlink:href="#3" y="2.171"/><use xlink:href="#7" y="4.342"/><use xlink:href="#5" y="6.513"/><use xlink:href="#6" y="8.684"/></svg><svg x="1660"><use xlink:href="#a"/><use xlink:href="#2"/><use xlink:href="#3" y="2.171"/><use xlink:href="#8" y="4.342"/><use xlink:href="#5" y="6.513"/><use xlink:href="#6" y="8.684"/></svg><svg x="1743"><use xlink:href="#a"/><use xlink:href="#2"/><use xlink:href="#3" y="2.171"/><use xlink:href="#8" y="4.342"/><use xlink:href="#5" y="6.513"/><use xlink:href="#6" y="8.684"/></svg><svg x="1826"><use xlink:href="#a"/><use xlink:href="#2"/><use xlink:href="#3" y="2.171"/><use xlink:href="#8" y="4.342"/><use xlink:href="#5" y="6.513"/><use xlink:href="#6" y="8.684"/></svg><svg x="1909"><use xlink:href="#a"/><use xlink:href="#2"/><use xlink:href="#3" y="2.171"/><use xlink:href="#8" y="4.342"/><use xlink:href="#5" y="6.513"/><use xlink:href="#6" y="8.684"/></svg><svg x="1992"><use xlink:href="#a"/><use xlink:href="#2"/><use xlink:href="#3" y="2.171"/><use xlink:href="#9" y="4.342"/><use xlink:href="#5" y="6.513"/><use xlink:href="#6" y="8.684"/></svg><svg x="2075"><use xlink:href="#a"/><use xlink:href="#2"/><use xlink:href="#3" y="2.171"/><use xlink:href="#9" y="4.342"/><use xlink:href="#5" y="6.513"/><use xlink:href="#6" y="8.684"/></svg><svg x="2158"><use xlink:href="#a"/><use xlink:href="#2"/></svg><svg x="2241"><use xlink:href="#a"/><use xlink:href="#2"/><use xlink:href="#3" y="2.171"/><use xlink:href="#10" y="4.342"/><use xlink:href="#11" y="6.513"/><use xlink:href="#6" y="8.684"/></svg><svg x="2324"><use xlink:href="#a"/><use xlink:href="#2"/><use xlink:href="#3" y="2.171"/><use xlink:href="#10" y="4.342"/><use xlink:href="#11" y="6.513"/><use xlink:href="#6" y="8.684"/></svg><svg x="2407"><use xlink:href="#a"/><use xlink:href="#2"/><use xlink:href="#3" y="2.171"/><use xlink:href="#10" y="4.342"/><use xlink:href="#11" y="6.513"/><use xlink:href="#6" y="8.684"/></svg><svg x="2490"><use xlink:href="#a"/><use xlink:href="#2"/><use xlink:href="#3" y="2.171"/><use xlink:href="#10" y="4.342"/><use xlink:href="#12" y="6.513"/><use xlink:href="#6" y="8.684"/></svg><svg x="2573"><use xlink:href="#a"/><use xlink:href="#2"/><use xlink:href="#3" y="2.171"/><use xlink:href="#10" y="4.342"/><use xlink:href="#12" y="6.513"/><use xlink:href="#6" y="8.684"/></svg><svg x="2656"><use xlink:href="#a"/><use xlink:href="#2"/><use xlink:href="#3" y="2.171"/><use xlink:href="#10" y="4.342"/><use xlink:href="#12" y="6.513"/><use xlink:href="#6" y="8.684"/></svg><svg x="2739"><use xlink:href="#a"/><use xlink:href="#2"/><use xlink:href="#3" y="2.171"/><use xlink:href="#10" y="4.342"/><use xlink:href="#13" y="6.513"/><use xlink:href="#6" y="8.684"/></svg><svg x="2822"><use xlink:href="#a"/><use xlink:href="#2"/><use xlink:href="#3" y="2.171"/><use xlink:href="#10" y="4.342"/><use xlink:href="#13" y="6.513"/><use xlink:href="#6" y="8.684"/></svg><svg x="2905"><use xlink:href="#a"/><use xlink:href="#2"/><use xlink:href="#3" y="2.171"/><use xlink:href="#10" y="4.342"/><use xlink:href="#13" y="6.513"/><use xlink:href="#6" y="8.684"/></svg><svg x="2988"><use xlink:href="#a"/><use xlink:href="#2"/><use xlink:href="#3" y="2.171"/><use xlink:href="#10" y="4.342"/><use xlink:href="#13" y="6.513"/><use xlink:href="#6" y="8.684"/></svg><svg x="3071"><use xlink:href="#a"/><use xlink:href="#2"/><use xlink:href="#3" y="2.171"/><use xlink:href="#10" y="4.342"/><use xlink:href="#14" y="6.513"/><use xlink:href="#6" y="8.684"/></svg><svg x="3154"><use xlink:href="#a"/><use xlink:href="#2"/><use xlink:href="#3" y="2.171"/><use xlink:href="#10" y="4.342"/><use xlink:href="#14" y="6.513"/><use xlink:href="#6" y="8.684"/></svg><svg x="3237"><use xlink:href="#a"/><use xlink:href="#2"/></svg><svg x="3320"><use xlink:href="#a"/><use xlink:href="#2"/><use xlink:href="#3" y="2.171"/><use xlink:href="#10" y="4.342"/><use xlink:href="#15" y="6.513"/><use xlink:href="#6" y="8.684"/></svg><svg x="3403"><use xlink:href="#a"/><use xlink:href="#2"/><use xlink:href="#3" y="2.171"/><use xlink:href="#10" y="4.342"/><use xlink:href="#15" y="6.513"/><use xlink:href="#6" y="8.684"/></svg><svg x="3486"><use xlink:href="#a"/><use xlink:href="#2"/></svg><svg x="3569"><use xlink:href="#a"/><use xlink:href="#2"/><use xlink:href="#3" y="2.171"/><use xlink:href="#10" y="4.342"/><use xlink:href="#16" y="6.513"/><use xlink:href="#6" y="8.684"/></svg><svg x="3652"><use xlink:href="#a"/><use xlink:href="#2"/><use xlink:href="#3" y="2.171"/><use xlink:href="#10" y="4.342"/><use xlink:href="#16" y="6.513"/><use xlink:href="#6" y="8.684"/></svg><svg x="3735"><use xlink:href="#a"/><use xlink:href="#2"/><use xlink:href="#3" y="2.171"/><use xlink:href="#10" y="4.342"/><use xlink:href="#16" y="6.513"/><use xlink:href="#6" y="8.684"/></svg><svg x="3818"><use xlink:href="#a"/><use xlink:href="#2"/></svg><svg x="3901"><use xlink:href="#a"/><use xlink:href="#2"/><use xlink:href="#3" y="2.171"/><use xlink:href="#10" y="4.342"/><use xlink:href="#17" y="6.513"/><use xlink:href="#6" y="8.684"/></svg><svg x="3984"><use xlink:href="#a"/><use xlink:href="#2"/><use xlink:href="#3" y="2.171"/><use xlink:href="#10" y="4.342"/><use xlink:href="#17" y="6.513"/><use xlink:href="#6" y="8.684"/></svg><svg x="4067"><use xlink:href="#a"/><use xlink:href="#2"/><use xlink:href="#3" y="2.171"/><use xlink:href="#10" y="4.342"/><use xlink:href="#17" y="6.513"/><use xlink:href="#6" y="8.684"/></svg><svg x="4150"><use xlink:href="#a"/><use xlink:href="#2"/></svg><svg x="4233"><use xlink:href="#a"/><use xlink:href="#2"/><use xlink:href="#3" y="2.171"/><use xlink:href="#10" y="4.342"/><use xlink:href="#18" y="6.513"/><use xlink:href="#6" y="8.684"/></svg><svg x="4316"><use xlink:href="#a"/><use xlink:href="#2"/><use xlink:href="#3" y="2.171"/><use xlink:href="#10" y="4.342"/><use xlink:href="#18" y="6.513"/><use xlink:href="#6" y="8.684"/></svg><svg x="4399"><use xlink:href="#a"/><use xlink:href="#2"/><use xlink:href="#3" y="2.171"/><use xlink:href="#10" y="4.342"/><use xlink:href="#19" y="6.513"/><use xlink:href="#6" y="8.684"/></svg><svg x="4482"><use xlink:href="#a"/><use xlink:href="#2"/><use xlink:href="#3" y="2.171"/><use xlink:href="#10" y="4.342"/><use xlink:href="#19" y="6.513"/><use xlink:href="#6" y="8.684"/></svg><svg x="4565"><use xlink:href="#a"/><use xlink:href="#2"/><use xlink:href="#3" y="2.171"/><use xlink:href="#10" y="4.342"/><use xlink:href="#19" y="6.513"/><use xlink:href="#6" y="8.684"/></svg><svg x="4648"><use xlink:href="#a"/><use xlink:href="#2"/><use xlink:href="#3" y="2.171"/><use xlink:href="#10" y="4.342"/><use xlink:href="#19" y="6.513"/><use xlink:href="#6" y="8.684"/></svg><svg x="4731"><use xlink:href="#a"/><use xlink:href="#2"/><use xlink:href="#3" y="2.171"/><use xlink:href="#10" y="4.342"/><use xlink:href="#20" y="6.513"/><use xlink:href="#6" y="8.684"/></svg><svg x="4814"><use xlink:href="#a"/><use xlink:href="#2"/><use xlink:href="#3" y="2.171"/><use xlink:href="#10" y="4.342"/><use xlink:href="#20" y="6.513"/><use xlink:href="#6" y="8.684"/></svg><svg x="4897"><use xlink:href="#a"/><use xlink:href="#2"/><use xlink:href="#3" y="2.171"/><use xlink:href="#10" y="4.342"/><use xlink:href="#20" y="6.513"/><use xlink:href="#6" y="8.684"/></svg><svg x="4980"><use xlink:href="#a"/><use xlink:href="#2"/><use xlink:href="#3" y="2.171"/><use xlink:href="#10" y="4.342"/><use xlink:href="#21" y="6.513"/><use xlink:href="#6" y="8.684"/></svg><svg x="5063"><use xlink:href="#a"/><use xlink:href="#2"/><use xlink:href="#3" y="2.171"/><use xlink:href="#10" y="4.342"/><use xlink:href="#21" y="6.513"/><use xlink:href="#6" y="8.684"/></svg><svg x="5146"><use xlink:href="#a"/><use xlink:href="#2"/><use xlink:href="#3" y="2.171"/><use xlink:href="#10" y="4.342"/><use xlink:href="#22" y="6.513"/><use xlink:href="#23" y="8.684"/></svg><svg x="5229"><use xlink:href="#a"/><use xlink:href="#2"/><use xlink:href="#3" y="2.171"/><use xlink:href="#10" y="4.342"/><use xlink:href="#22" y="6.513"/><use xlink:href="#23" y="8.684"/></svg><svg x="5312"><use xlink:href="#a"/><use xlink:href="#2"/><use xlink:href="#3" y="2.171"/><use xlink:href="#10" y="4.342"/><use xlink:href="#22" y="6.513"/><use xlink:href="#23" y="8.684"/></svg><svg x="5395"><use xlink:href="#a"/><use xlink:href="#2"/></svg><svg x="5478"><use xlink:href="#a"/><use xlink:href="#2"/><use xlink:href="#3" y="2.171"/><use xlink:href="#10" y="4.342"/><use xlink:href="#22" y="6.513"/><use xlink:href="#24" y="8.684"/></svg><svg x="5561"><use xlink:href="#a"/><use xlink:href="#2"/><use xlink:href="#3" y="2.171"/><use xlink:href="#10" y="4.342"/><use xlink:href="#22" y="6.513"/><use xlink:href="#24" y="8.684"/></svg><svg x="5644"><use xlink:href="#a"/><use xlink:href="#2"/><use xlink:href="#3" y="2.171"/><use xlink:href="#10" y="4.342"/><use xlink:href="#22" y="6.513"/><use xlink:href="#24" y="8.684"/></svg><svg x="5727"><use xlink:href="#a"/><use xlink:href="#2"/></svg><svg x="5810"><use xlink:href="#a"/><use xlink:href="#2"/><use xlink:href="#3" y="2.171"/><use xlink:href="#10" y="4.342"/><use xlink:href="#22" y="6.513"/><use xlink:href="#25" y="8.684"/></svg><svg x="5893"><use xlink:href="#a"/><use xlink:href="#2"/><use xlink:href="#3" y="2.171"/><use xlink:href="#10" y="4.342"/><use xlink:href="#22" y="6.513"/><use xlink:href="#25" y="8.684"/></svg><svg x="5976"><use xlink:href="#a"/><use xlink:href="#2"/><use xlink:href="#3" y="2.171"/><use xlink:href="#10" y="4.342"/><use xlink:href="#22" y="6.513"/><use xlink:href="#26" y="8.684"/></svg><svg x="6059"><use xlink:href="#a"/><use xlink:href="#2"/><use xlink:href="#3" y="2.171"/><use xlink:href="#10" y="4.342"/><use xlink:href="#22" y="6.513"/><use xlink:href="#26" y="8.684"/></svg><svg x="6142"><use xlink:href="#a"/><use xlink:href="#2"/><use xlink:href="#3" y="2.171"/><use xlink:href="#10" y="4.342"/><use xlink:href="#22" y="6.513"/><use xlink:href="#26" y="8.684"/></svg><svg x="6225"><use xlink:href="#a"/><use xlink:href="#2"/><use xlink:href="#3" y="2.171"/><use xlink:href="#10" y="4.342"/><use xlink:href="#22" y="6.513"/><use xlink:href="#27" y="8.684"/></svg><svg x="6308"><use xlink:href="#a"/><use xlink:href="#2"/><use xlink:href="#3" y="2.171"/><use xlink:href="#10" y="4.342"/><use xlink:href="#22" y="6.513"/><use xlink:href="#27" y="8.684"/></svg><svg x="6391"><use xlink:href="#a"/><use xlink:href="#2"/><use xlink:href="#3" y="2.171"/><use xlink:href="#10" y="4.342"/><use xlink:href="#22" y="6.513"/><use xlink:href="#27" y="8.684"/></svg><svg x="6474"><use xlink:href="#a"/><use xlink:href="#2"/></svg><svg x="6557"><use xlink:href="#a"/><use xlink:href="#2"/><use xlink:href="#3" y="2.171"/><use xlink:href="#10" y="4.342"/><use xlink:href="#22" y="6.513"/><use xlink:href="#28" y="8.684"/></svg><svg x="6640"><use xlink:href="#a"/><use xlink:href="#2"/><use xlink:href="#3" y="2.171"/><use xlink:href="#10" y="4.342"/><use xlink:href="#22" y="6.513"/><use xlink:href="#28" y="8.684"/></svg><svg x="6723"><use xlink:href="#a"/><use xlink:href="#2"/><use xlink:href="#3" y="2.171"/><use xlink:href="#10" y="4.342"/><use xlink:href="#22" y="6.513"/><use xlink:href="#29" y="8.684"/></svg><svg x="6806"><use xlink:href="#a"/><use xlink:href="#2"/><use xlink:href="#3" y="2.171"/><use xlink:href="#10" y="4.342"/><use xlink:href="#22" y="6.513"/><use xlink:href="#29" y="8.684"/></svg><svg x="6889"><use xlink:href="#a"/><use xlink:href="#2"/><use xlink:href="#3" y="2.171"/><use xlink:href="#10" y="4.342"/><use xlink:href="#22" y="6.513"/><use xlink:href="#29" y="8.684"/></svg><svg x="6972"><use xlink:href="#a"/><use xlink:href="#2"/><use xlink:href="#3" y="2.171"/><use xlink:href="#10" y="4.342"/><use xlink:href="#22" y="6.513"/><use xlink:href="#30" y="8.684"/></svg><svg x="7055"><use xlink:href="#a"/><use xlink:href="#2"/><use xlink:href="#3" y="2.171"/><use xlink:href="#10" y="4.342"/><use xlink:href="#22" y="6.513"/><use xlink:href="#30" y="8.684"/></svg><svg x="7138"><use xlink:href="#a"/><use xlink:href="#2"/><use xlink:href="#3" y="2.171"/><use xlink:href="#10" y="4.342"/><use xlink:href="#22" y="6.513"/><use xlink:href="#30" y="8.684"/></svg><svg x="7221"><use xlink:href="#a"/><use xlink:href="#2"/></svg><svg x="7304"><use xlink:href="#a"/><use xlink:href="#2"/><use xlink:href="#3" y="2.171"/><use xlink:href="#10" y="4.342"/><use xlink:href="#22" y="6.513"/><use xlink:href="#31" y="8.684"/></svg><svg x="7387"><use xlink:href="#a"/><use xlink:href="#2"/><use xlink:href="#3" y="2.171"/><use xlink:href="#10" y="4.342"/><use xlink:href="#22" y="6.513"/><use xlink:href="#31" y="8.684"/></svg><svg x="7470"><use xlink:href="#a"/><use xlink:href="#2"/><use xlink:href="#3" y="2.171"/><use xlink:href="#10" y="4.342"/><use xlink:href="#22" y="6.513"/><use xlink:href="#32" y="8.684"/></svg><svg x="7553"><use xlink:href="#a"/><use xlink:href="#2"/><use xlink:href="#3" y="2.171"/><use xlink:href="#10" y="4.342"/><use xlink:href="#22" y="6.513"/><use xlink:href="#32" y="8.684"/></svg><svg x="7636"><use xlink:href="#a"/><use xlink:href="#2"/><use xlink:href="#3" y="2.171"/><use xlink:href="#10" y="4.342"/><use xlink:href="#22" y="6.513"/><use xlink:href="#32" y="8.684"/></svg><svg x="7719"><use xlink:href="#a"/><use xlink:href="#2"/><use xlink:href="#3" y="2.171"/><use xlink:href="#10" y="4.342"/><use xlink:href="#22" y="6.513"/><use xlink:href="#33" y="8.684"/></svg><svg x="7802"><use xlink:href="#a"/><use xlink:href="#2"/><use xlink:href="#3" y="2.171"/><use xlink:href="#10" y="4.342"/><use xlink:href="#22" y="6.513"/><use xlink:href="#33" y="8.684"/></svg><svg x="7885"><use xlink:href="#a"/><use xlink:href="#2"/><use xlink:href="#3" y="2.171"/><use xlink:href="#10" y="4.342"/><use xlink:href="#22" y="6.513"/><use xlink:href="#33" y="8.684"/></svg><svg x="7968"><use xlink:href="#a"/><use xlink:href="#2"/></svg><svg x="8051"><use xlink:href="#a"/><use xlink:href="#2"/><use xlink:href="#3" y="2.171"/><use xlink:href="#10" y="4.342"/><use xlink:href="#22" y="6.513"/><use xlink:href="#34" y="8.684"/></svg><svg x="8134"><use xlink:href="#a"/><use xlink:href="#2"/><use xlink:href="#3" y="2.171"/><use xlink:href="#10" y="4.342"/><use xlink:href="#22" y="6.513"/><use xlink:href="#34" y="8.684"/></svg><svg x="8217"><use xlink:href="#a"/><use xlink:href="#2"/><use xlink:href="#3" y="2.171"/><use xlink:href="#10" y="4.342"/><use xlink:href="#22" y="6.513"/><use xlink:href="#35" y="8.684"/></svg><svg x="8300"><use xlink:href="#a"/><use xlink:href="#2"/><use xlink:href="#3" y="2.171"/><use xlink:href="#10" y="4.342"/><use xlink:href="#22" y="6.513"/><use xlink:href="#35" y="8.684"/></svg><svg x="8383"><use xlink:href="#a"/><use xlink:href="#2"/><use xlink:href="#3" y="2.171"/><use xlink:href="#10" y="4.342"/><use xlink:href="#22" y="6.513"/><use xlink:href="#35" y="8.684"/></svg><svg x="8466"><use xlink:href="#a"/><use xlink:href="#2"/><use xlink:href="#3" y="2.171"/><use xlink:href="#10" y="4.342"/><use xlink:href="#22" y="6.513"/><use xlink:href="#35" y="8.684"/></svg><svg x="8549"><use xlink:href="#a"/><use xlink:href="#2"/><use xlink:href="#3" y="2.171"/><use xlink:href="#10" y="4.342"/><use xlink:href="#22" y="6.513"/><text y="10.354" class="l">⦿</text><text x="3.006" y="10.354" class="g">GitHub</text><text x="10.02" y="10.354" class="g">username</text><text x="19.038" y="10.354" class="i">:</text><text x="21.042" y="10.354" class="f">jonschlinkert</text><path class="j" d="M34.068 8.684h1v2.171h-1z"/><text x="34.068" y="10.354" class="k"></text></svg><svg x="8632"><use xlink:href="#a"/><use xlink:href="#2"/><use xlink:href="#36" y="2.171"/></svg><svg x="8715"><use xlink:href="#a"/><use xlink:href="#2"/><use xlink:href="#36" y="2.171"/></svg><svg x="8798"><use xlink:href="#a"/><use xlink:href="#2"/><use xlink:href="#36" y="2.171"/><use xlink:href="#37" y="4.342"/><use xlink:href="#38" y="6.513"/><use xlink:href="#39" y="8.684"/><use xlink:href="#40" y="10.855"/><use xlink:href="#41" y="13.026"/><use xlink:href="#42" y="15.197"/><use xlink:href="#43" y="17.368"/></svg><svg x="8881"><use xlink:href="#a"/><use xlink:href="#b" x="-.004" y="19.514"/><use xlink:href="#2"/><use xlink:href="#36" y="2.171"/><use xlink:href="#37" y="4.342"/><use xlink:href="#38" y="6.513"/><use xlink:href="#39" y="8.684"/><use xlink:href="#40" y="10.855"/><use xlink:href="#41" y="13.026"/><use xlink:href="#42" y="15.197"/><use xlink:href="#43" y="17.368"/></svg><svg x="8964"><use xlink:href="#a"/><use xlink:href="#b" x="-.004" y="19.514"/><use xlink:href="#2"/><use xlink:href="#36" y="2.171"/><use xlink:href="#37" y="4.342"/><use xlink:href="#38" y="6.513"/><use xlink:href="#39" y="8.684"/><use xlink:href="#40" y="10.855"/><use xlink:href="#41" y="13.026"/><use xlink:href="#42" y="15.197"/><use xlink:href="#43" y="17.368"/></svg><svg x="9047"><use xlink:href="#a"/><use xlink:href="#b" x="-.004" y="19.514"/><use xlink:href="#2"/><use xlink:href="#36" y="2.171"/><use xlink:href="#37" y="4.342"/><use xlink:href="#38" y="6.513"/><use xlink:href="#39" y="8.684"/><use xlink:href="#40" y="10.855"/><use xlink:href="#41" y="13.026"/><use xlink:href="#42" y="15.197"/><use xlink:href="#43" y="17.368"/></svg><svg x="9130"><use xlink:href="#a"/><use xlink:href="#b" x="-.004" y="19.514"/><use xlink:href="#2"/><use xlink:href="#36" y="2.171"/><use xlink:href="#37" y="4.342"/><use xlink:href="#38" y="6.513"/><use xlink:href="#39" y="8.684"/><use xlink:href="#40" y="10.855"/><use xlink:href="#41" y="13.026"/><use xlink:href="#42" y="15.197"/><use xlink:href="#43" y="17.368"/></svg><svg x="9213"><use xlink:href="#a"/><use xlink:href="#b" x="-.004" y="19.514"/><use xlink:href="#2"/><use xlink:href="#36" y="2.171"/><use xlink:href="#37" y="4.342"/><use xlink:href="#38" y="6.513"/><use xlink:href="#39" y="8.684"/><use xlink:href="#40" y="10.855"/><use xlink:href="#41" y="13.026"/><use xlink:href="#42" y="15.197"/><use xlink:href="#43" y="17.368"/></svg><svg x="9296"><use xlink:href="#a"/><use xlink:href="#b" x="-.004" y="19.514"/><use xlink:href="#2"/><use xlink:href="#36" y="2.171"/><use xlink:href="#37" y="4.342"/><use xlink:href="#38" y="6.513"/><use xlink:href="#39" y="8.684"/><use xlink:href="#40" y="10.855"/><use xlink:href="#41" y="13.026"/><use xlink:href="#42" y="15.197"/><use xlink:href="#43" y="17.368"/></svg><svg x="9379"><use xlink:href="#a"/><use xlink:href="#b" x="-.004" y="19.514"/><use xlink:href="#2"/><use xlink:href="#36" y="2.171"/><use xlink:href="#37" y="4.342"/><use xlink:href="#38" y="6.513"/><use xlink:href="#39" y="8.684"/><use xlink:href="#40" y="10.855"/><use xlink:href="#41" y="13.026"/><use xlink:href="#42" y="15.197"/><use xlink:href="#43" y="17.368"/></svg><svg x="9462"><use xlink:href="#a"/><use xlink:href="#b" x="9.996" y="19.514"/><use xlink:href="#2"/><use xlink:href="#36" y="2.171"/><use xlink:href="#37" y="4.342"/><use xlink:href="#38" y="6.513"/><use xlink:href="#39" y="8.684"/><use xlink:href="#40" y="10.855"/><use xlink:href="#41" y="13.026"/><use xlink:href="#42" y="15.197"/><use xlink:href="#43" y="17.368"/><use xlink:href="#1" y="19.539"/></svg><svg x="9545"><use xlink:href="#a"/><use xlink:href="#b" x="-.004" y="21.685"/><use xlink:href="#2"/><use xlink:href="#36" y="2.171"/><use xlink:href="#37" y="4.342"/><use xlink:href="#38" y="6.513"/><use xlink:href="#39" y="8.684"/><use xlink:href="#40" y="10.855"/><use xlink:href="#41" y="13.026"/><use xlink:href="#42" y="15.197"/><use xlink:href="#43" y="17.368"/><text y="21.209" class="f">bash-4.4$</text><text x="10.02" y="21.209" class="f">exit</text></svg></svg></g></g></svg></svg>